<svg xmlns="http://www.w3.org/2000/svg" viewBox="0 0 120 60" fill="#C9AC72">
  <!-- PLACEHOLDER — swap for the generated dot-grid PNG. -->
  <g opacity=".65">
    <circle cx="4" cy="4" r="1.6"/><circle cx="24" cy="4" r="1.6"/><circle cx="44" cy="4" r="1.6"/><circle cx="64" cy="4" r="1.6"/><circle cx="84" cy="4" r="1.6"/><circle cx="104" cy="4" r="1.6"/>
    <circle cx="4" cy="22" r="1.6"/><circle cx="24" cy="22" r="1.6"/><circle cx="44" cy="22" r="1.6"/><circle cx="64" cy="22" r="1.6"/><circle cx="84" cy="22" r="1.6"/><circle cx="104" cy="22" r="1.6"/>
    <circle cx="4" cy="40" r="1.6"/><circle cx="24" cy="40" r="1.6"/><circle cx="44" cy="40" r="1.6"/><circle cx="64" cy="40" r="1.6"/><circle cx="84" cy="40" r="1.6"/><circle cx="104" cy="40" r="1.6"/>
    <circle cx="4" cy="58" r="1.6"/><circle cx="24" cy="58" r="1.6"/><circle cx="44" cy="58" r="1.6"/><circle cx="64" cy="58" r="1.6"/><circle cx="84" cy="58" r="1.6"/><circle cx="104" cy="58" r="1.6"/>
  </g>
</svg>
